<?xml version="1.0" standalone="no"?>
<!DOCTYPE svg PUBLIC "-//W3C//DTD SVG 20010904//EN"
 "http://www.w3.org/TR/2001/REC-SVG-20010904/DTD/svg10.dtd">
<svg version="1.0" xmlns="http://www.w3.org/2000/svg"
 width="1088.000000pt" height="1280.000000pt" viewBox="0 0 1088.000000 1280.000000"
 preserveAspectRatio="xMidYMid meet">
<g transform="translate(0.000000,1280.000000) scale(0.100000,-0.100000)"
fill="#000000" stroke="none">
<path d="M5189 12796 c-2 -2 -65 -11 -139 -21 -675 -84 -1189 -457 -1582
-1145 -56 -98 -67 -124 -71 -176 -6 -73 -36 -140 -119 -267 -75 -114 -100
-168 -138 -305 -90 -327 -170 -885 -255 -1789 -4 -40 -12 -76 -18 -81 -7 -5
-38 -14 -70 -21 -32 -7 -69 -23 -83 -35 -24 -20 -27 -31 -34 -126 -4 -58 -17
-140 -28 -182 -21 -79 -42 -261 -42 -375 0 -34 -3 -64 -8 -67 -4 -2 -70 -9
-147 -15 -507 -41 -899 -108 -1043 -177 -40 -20 -65 -42 -98 -86 -89 -121 -84
-208 16 -270 27 -17 50 -35 50 -39 0 -5 -42 -9 -92 -9 -126 -1 -166 -11 -206
-55 -30 -33 -32 -39 -26 -83 4 -37 -8 -106 -61 -337 -133 -585 -258 -1115
-306 -1300 -27 -104 -71 -275 -98 -380 -56 -215 -81 -365 -81 -484 0 -134 -59
-415 -314 -1485 -162 -677 -162 -679 -178 -886 -21 -267 -16 -409 25 -785 167
-1516 163 -1485 199 -1543 26 -43 119 -120 205 -171 82 -49 207 -101 240 -101
31 0 160 24 333 62 l135 30 1225 13 c674 8 1394 19 1600 25 206 6 530 15 720
20 796 23 1285 27 2770 25 1470 -3 1588 -4 1940 -25 438 -26 886 -31 971 -12
68 15 93 40 147 142 96 180 181 469 276 940 67 330 94 771 66 1084 -5 61 -14
190 -20 286 -13 214 -43 464 -76 630 -47 239 -194 769 -501 1810 -200 679
-193 651 -193 811 0 264 -29 440 -110 669 -64 181 -164 508 -285 929 -63 221
-99 329 -111 338 -10 7 -30 13 -45 13 -40 0 -43 14 -14 59 36 53 34 85 -10
163 -40 73 -69 100 -137 124 -149 53 -329 68 -825 68 -232 1 -424 4 -428 8 -3
3 1 30 10 60 9 29 19 103 22 163 5 98 3 121 -21 210 -15 55 -35 117 -46 137
-11 21 -29 75 -40 120 -40 157 -72 198 -162 213 -46 8 -49 13 -79 150 -70 325
-393 1680 -420 1762 -11 34 -33 79 -49 101 -52 73 -61 101 -76 239 -14 134
-56 310 -91 376 -55 108 -196 288 -326 418 -337 335 -750 543 -1202 603 -66 9
-150 21 -187 26 -65 10 -250 14 -259 6z m356 -420 c109 -23 190 -53 313 -114
104 -51 125 -67 246 -182 73 -69 189 -184 258 -255 l125 -131 7 -213 c9 -267
23 -353 131 -787 80 -317 88 -359 125 -649 59 -464 112 -945 106 -960 -2 -7
-29 -18 -58 -24 -92 -20 -148 -42 -161 -64 -8 -15 -12 -75 -11 -197 1 -218 21
-352 65 -424 37 -60 68 -214 47 -228 -22 -13 -368 -9 -879 12 -419 17 -1161
36 -1664 43 l-150 2 4 79 c2 54 10 95 26 131 53 119 61 303 19 455 -25 90 -51
150 -65 150 -3 0 -18 11 -32 24 -20 19 -26 32 -22 53 2 15 9 132 15 258 21
462 32 609 82 1050 l51 450 4 490 c2 297 8 500 14 516 13 32 320 301 401 351
120 74 317 133 543 162 66 9 134 18 150 20 55 8 239 -3 310 -18z m1339 -3519
c13 -36 -2 -61 -38 -65 -25 -3 -26 -1 -26 41 0 24 3 47 7 51 15 15 48 0 57
-27z m984 -246 c6 -37 -63 -165 -124 -231 -97 -104 -216 -147 -379 -137 -112
7 -217 37 -315 88 -133 69 -147 91 -149 226 -1 54 13 62 49 28 39 -37 78 -40
291 -21 198 18 581 65 589 72 11 12 35 -4 38 -25z m-4464 -128 c260 -22 445
-42 454 -49 15 -11 15 -15 2 -40 -26 -49 -116 -130 -176 -160 -56 -27 -68 -29
-206 -32 -175 -4 -230 7 -364 72 -65 33 -104 60 -141 99 -75 79 -92 165 -29
152 11 -2 218 -21 460 -42z m4546 -157 c0 -22 -36 -100 -55 -119 -16 -17 -75
-23 -89 -10 -7 7 122 143 136 143 5 0 8 -6 8 -14z"/>
</g>
</svg>
